<?xml version="1.0" encoding="UTF-8" standalone="no"?>
<!-- Created with Inkscape (http://www.inkscape.org/) -->

<svg
   width="210.38033mm"
   height="263.58337mm"
   viewBox="0 0 210.38033 263.58337"
   version="1.1"
   id="svg1"
   xml:space="preserve"
   sodipodi:docname="drawing.svg"
   inkscape:version="1.3.2 (091e20ef0f, 2023-11-25)"
   xmlns:inkscape="http://www.inkscape.org/namespaces/inkscape"
   xmlns:sodipodi="http://sodipodi.sourceforge.net/DTD/sodipodi-0.dtd"
   xmlns:xlink="http://www.w3.org/1999/xlink"
   xmlns="http://www.w3.org/2000/svg"
   xmlns:svg="http://www.w3.org/2000/svg"><sodipodi:namedview
     id="namedview1"
     pagecolor="#505050"
     bordercolor="#eeeeee"
     borderopacity="1"
     inkscape:showpageshadow="0"
     inkscape:pageopacity="0"
     inkscape:pagecheckerboard="0"
     inkscape:deskcolor="#505050"
     inkscape:document-units="mm"
     inkscape:zoom="0.42392248"
     inkscape:cx="330.24906"
     inkscape:cy="564.96179"
     inkscape:window-width="1920"
     inkscape:window-height="1123"
     inkscape:window-x="0"
     inkscape:window-y="0"
     inkscape:window-maximized="1"
     inkscape:current-layer="layer2" /><defs
     id="defs1"><linearGradient
       id="swatch97"><stop
         style="stop-color:#abbecd;stop-opacity:1;"
         offset="0"
         id="stop97" /></linearGradient><inkscape:path-effect
       effect="fillet_chamfer"
       id="path-effect1"
       is_visible="true"
       lpeversion="1"
       nodesatellites_param="F,0,0,1,0,0,0,1 @ F,0,0,1,0,0,0,1 @ F,0,0,1,0,0,0,1 @ F,0,0,1,0,0,0,1"
       radius="0"
       unit="px"
       method="auto"
       mode="F"
       chamfer_steps="1"
       flexible="false"
       use_knot_distance="true"
       apply_no_radius="true"
       apply_with_radius="true"
       only_selected="false"
       hide_knots="false" /><radialGradient
       inkscape:collect="always"
       xlink:href="#swatch97"
       id="radialGradient97"
       cx="105.02977"
       cy="133.77316"
       fx="105.02977"
       fy="133.77316"
       r="35.969383"
       gradientTransform="matrix(2.0533463,0,0,1.6114985,-110.26669,-47.661749)"
       gradientUnits="userSpaceOnUse" /></defs><g
     inkscape:groupmode="layer"
     id="layer2"
     inkscape:label="Layer 2"><path
       id="path39"
       style="display:inline;fill:#22A699;fill-opacity:1;stroke-width:0.543281"
       d="M 105.34484,0.577731 C 67.123571,2.203531 35.653611,13.273701 0.740931,19.757051 v 143.095159 4.43646 c 0.40163,5.87477 2.26421,10.6004 3.13129,12.52411 21.49803,42.9052 64.02773,59.92507 101.465179,83.21221 h 0.0182 c 37.43541,-23.28445 79.96026,-40.30491 101.45667,-83.20691 0.86706,-1.92371 2.72966,-6.64929 3.1313,-12.52411 V 162.85753 19.762341 C 175.0321,13.279261 143.56316,2.209481 105.3438,0.583041 Z m 0.004,15.20869 c 32.78671,1.42922 59.78194,11.16138 89.73053,16.86083 v 125.793989 3.89951 c -0.34453,5.1645 -1.94185,9.31882 -2.68566,11.00995 -18.44223,37.71957 -54.92824,52.6799 -87.04381,73.15302 v 0.003 l -0.001,-0.001 C 73.233111,226.03165 36.747111,211.07027 18.304861,173.3507 c -0.74379,-1.69113 -2.3411,-5.84545 -2.68563,-11.00995 V 158.44124 32.647251 c 29.94824,-5.69939 56.94323,-15.43039 89.729489,-16.85977 z" /><path
       id="path85"
       style="opacity:1;fill:url(#radialGradient97);fill-opacity:1;stroke-width:0.543281"
       d="m 143.62069,109.95234 c -29.88054,0.27651 -44.0848,17.21119 -56.55853,35.98176 -23.201309,-2.21836 -41.625249,4.16669 -55.482599,18.76656 -0.002,0.003 -0.004,0.004 -0.007,0.009 -0.002,9.8e-4 -0.003,0.003 -0.005,0.004 -0.002,0.003 -0.005,0.004 -0.008,0.006 -10e-4,7e-4 -0.002,-5e-5 -0.002,0 l -0.001,9.9e-4 c -0.003,0.003 -0.006,0.004 -0.009,0.005 -8.8e-4,5.4e-4 -0.002,6.5e-4 -0.002,0.001 -0.002,0.003 -0.004,0.006 -0.006,0.009 v 9.9e-4 c -5.5e-4,8.7e-4 -10e-4,0.003 -10e-4,0.004 v 0.0403 l 147.672119,-8.91885 v 9.9e-4 L 31.537931,164.7819 v 0.004 c 4.38611,8.89071 10.99043,16.97531 19.0732,24.52193 14.40674,13.45105 33.565279,25.1739 53.624619,36.56959 21.44424,-10.45933 40.52007,-22.28882 55.36374,-36.56959 7.7953,-7.49974 14.44467,-15.66368 19.61117,-24.68536 v -0.3321 c 0.0142,-0.0232 0.0286,-0.0457 0.0426,-0.0689 v -48.43968 l -9.9e-4,-9.9e-4 c -0.003,-0.001 -0.006,-0.004 -0.009,-0.006 v 0.003 c -13.96114,-4.15795 -25.66207,-5.91757 -35.62204,-5.82541 z" /><path
       style="fill:#22A699;fill-opacity:1;stroke-width:0.543281"
       d="m 31.578461,146.03901 c 13.85914,-14.60969 32.28597,-20.99798 55.494839,-18.77897 16.63232,-25.02807 36.33877,-46.789879 92.18215,-30.156309 v -51.08556 c -51.65271,-17.56366 -100.72749,-16.396 -147.706429,0 z"
       id="path48-0"
       sodipodi:nodetypes="cccccc" /></g></svg>
